<svg xmlns="http://www.w3.org/2000/svg" viewBox="0 0 128 128" role="img" aria-labelledby="title">
  <title id="title">第二名銀色獎牌</title>
  <defs>
    <linearGradient id="ribbon" x1="0" y1="0" x2="1" y2="1"><stop stop-color="#517487"/><stop offset="1" stop-color="#263f53"/></linearGradient>
    <radialGradient id="metal" cx="35%" cy="28%" r="72%"><stop stop-color="#ffffff"/><stop offset=".46" stop-color="#dbe4ea"/><stop offset="1" stop-color="#91a0ab"/></radialGradient>
  </defs>
  <path d="M37 69 25 118l22-11 14 17 7-47Z" fill="url(#ribbon)"/>
  <path d="m91 69 12 49-22-11-14 17-7-47Z" fill="url(#ribbon)"/>
  <circle cx="64" cy="52" r="39" fill="#506270" opacity=".22"/>
  <circle cx="64" cy="49" r="38" fill="url(#metal)" stroke="#7c8b96" stroke-width="5"/>
  <circle cx="64" cy="49" r="28" fill="none" stroke="#ffffff" stroke-width="2.5" opacity=".8"/>
  <path d="m87 25 2.8 6.4 6.7 2.6-6.7 2.7-2.8 6.4-2.7-6.4-6.7-2.7 6.7-2.6Z" fill="#ffffff"/>
  <text x="64" y="61" text-anchor="middle" font-family="Arial, sans-serif" font-size="36" font-weight="900" fill="#596874">2</text>
  <circle cx="50" cy="69" r="2.4" fill="#71818d" opacity=".45"/><circle cx="78" cy="69" r="2.4" fill="#71818d" opacity=".45"/>
  <path d="M55 72c5 4 13 4 18 0" fill="none" stroke="#687985" stroke-width="2.4" stroke-linecap="round" opacity=".55"/>
</svg>
